# xmcd
#
# Track frame offsets:
#	225
#	13066
#	29596
#	45586
#	60412
#	73064
#	87935
#	99643
#	110030
#	124234
#
# Disc length: 1898 seconds
#
# Revision: 0
# Processed by: cddbd v1.5.1PL2 Copyright (c) Steve Scherf et al.
# Submitted via: audiograbber 1.82.00
#
DISCID=8a07670a
DTITLE=Maz Smith - I Thought I'd Heard It All
DYEAR=1999
DGENRE=Country
TTITLE0=Can't Help Falling In Love
TTITLE1=Ghost Rider In The Sky
TTITLE2=Crying
TTITLE3=Who Says You Can't Have It All
TTITLE4=Pretty Woman
TTITLE5=I Thought I'd Heard It All
TTITLE6=Solitary Man
TTITLE7=I'll Even Love You Better
TTITLE8=Somebody Lied
TTITLE9=I Fall To Pieces
EXTD=
EXTT0=
EXTT1=
EXTT2=
EXTT3=
EXTT4=
EXTT5=
EXTT6=
EXTT7=
EXTT8=
EXTT9=
PLAYORDER=
